<svg version="1.1" xmlns="http://www.w3.org/2000/svg" xmlns:xlink="http://www.w3.org/1999/xlink">
<defs>
    <symbol id="logo" viewbox="0 0 32 32">
        <title>Logo</title>
        <path d="M0,0v32h32V0H0z M30,30H2V2h28V30z M8,8h16v2H12v6h4v2h-4v6H8V8z M14,12v2h4v6h-4v2h8V12H14z" />
    </symbol>
    <symbol id="icon-menu" viewBox="0 0 32 32">
        <title>Menu</title>
        <rect x="2" y="6" rx="2" width="28" height="4" />
        <rect x="2" y="14" rx="2" width="28" height="4" />
        <rect x="2" y="22" rx="2" width="28" height="4" />
    </symbol>
    <symbol id="icon-menu-list" viewBox="0 0 32 32">
        <title>Menu List</title>
        <rect x="2" y="6" rx="2" width="8" height="4" />
        <rect x="2" y="14" rx="2" width="8" height="4" />
        <rect x="2" y="22" rx="2" width="8" height="4" />
        <rect x="12" y="6" rx="2" width="20" height="4" />
        <rect x="12" y="14" rx="2" width="20" height="4" />
        <rect x="12" y="22" rx="2" width="20" height="4" />
    </symbol>
    <symbol id="icon-profile" viewBox="0 0 30 32">
        <title>Profile</title>
        <path d="M15.148 11.361c3.030 0 5.68-2.651 5.68-5.68s-2.651-5.68-5.68-5.68-5.68 2.651-5.68 5.68c0 3.030 2.651 5.68 5.68 5.68zM15.148 1.893c1.988 0 3.787 1.799 3.787 3.787s-1.799 3.787-3.787 3.787c-1.988 0-3.787-1.799-3.787-3.787s1.799-3.787 3.787-3.787z M15.148 13.254c-5.018 0-9.467 5.396-9.467 12.024s18.935 6.627 18.935 0c0-6.627-4.45-12.024-9.467-12.024zM15.148 28.402c-4.166 0-7.574-1.42-7.574-3.124 0-5.396 3.503-10.13 7.574-10.13s7.574 4.734 7.574 10.13c0 1.704-3.408 3.124-7.574 3.124z" />
    </symbol>

    <symbol id="icon-arrow-down" viewBox="0 0 32 32">
    <title>Arrow Down</title>
        <path class="path1" d="M17 4c-0.552 0-1 0.448-1 1v19.586l-4.292-4.292c-0.39-0.39-1.024-0.39-1.414 0s-0.39 1.024 0 1.414l6 6c0.002 0.002 0.006 0.002 0.008 0.006 0.090 0.088 0.198 0.162 0.316 0.21 0.244 0.102 0.52 0.102 0.764 0 0.122-0.050 0.232-0.124 0.324-0.216l6-6c0.39-0.39 0.39-1.024 0-1.414s-1.024-0.39-1.414 0l-4.292 4.292v-19.586c0-0.552-0.448-1-1-1z" />
    </symbol>
    <symbol id="icon-star-full" viewBox="0 0 32 32">
        <title>Star Full</title>
        <path d="M32 12.408l-11.056-1.607-4.944-10.018-4.944 10.018-11.056 1.607 8 7.798-1.889 11.011 9.889-5.199 9.889 5.199-1.889-11.011 8-7.798z" />
    </symbol>
    <symbol id="icon-arrow-right" viewBox="0 0 32 32">
        <title>Arrow Right</title>
        <path class="path1" d="M19.414 27.414l10-10c0.781-0.781 0.781-2.047 0-2.828l-10-10c-0.781-0.781-2.047-0.781-2.828 0s-0.781 2.047 0 2.828l6.586 6.586h-19.172c-1.105 0-2 0.895-2 2s0.895 2 2 2h19.172l-6.586 6.586c-0.39 0.39-0.586 0.902-0.586 1.414s0.195 1.024 0.586 1.414c0.781 0.781 2.047 0.781 2.828 0z" />
    </symbol>
    <symbol id="icon-cancel" viewBox="0 0 32 32">
        <title>Cancel</title>
        <path d="M6.2,24.3l8.2-8.3L6.2,7.7c-0.6-0.5-0.6-1,0-1.6c0.5-0.5,1.1-0.5,1.6,0l8.3,8.2l8.3-8.2c0.5-0.6,1-0.6,1.6,0 c0.5,0.5,0.5,1.1,0,1.6L17.6,16l8.2,8.3c0.6,0.5,0.6,1,0,1.6c-0.5,0.5-1.1,0.5-1.6,0L16,17.6l-8.3,8.2c-0.5,0.6-1,0.6-1.6,0 C5.6,25.3,5.6,24.8,6.2,24.3z" />
        </path>
    </symbol>
</defs>
</svg>